<svg xmlns="http://www.w3.org/2000/svg" viewBox="0 0 1180 610" width="100%" height="100%" max-width="1180">
  <defs>
    <!-- CSS Keyframe Animations -->
    <style>
      @import url('https://fonts.googleapis.com/css2?family=Fira+Code:wght@400;500;600;700&amp;family=Inter:wght@400;500;600;700;800&amp;display=swap');
      
      .bg-float-1 { animation: float1 18s ease-in-out indefinite alternate; }
      .bg-float-2 { animation: float2 22s ease-in-out indefinite alternate; }
      .bg-float-3 { animation: float3 15s ease-in-out indefinite alternate; }
      
      @keyframes float1 { 0% { transform: translate(0px, 0px) scale(1); } 100% { transform: translate(60px, 40px) scale(1.15); } }
      @keyframes float2 { 0% { transform: translate(0px, 0px) scale(1); } 100% { transform: translate(-50px, -30px) scale(1.1); } }
      @keyframes float3 { 0% { transform: translate(0px, 0px) scale(1); } 100% { transform: translate(40px, -50px) scale(1.2); } }

      .scanline { animation: scan 6s linear indefinite; }
      @keyframes scan { 0% { transform: translateY(0px); } 100% { transform: translateY(610px); } }

      .ascii-float { animation: asciiFloat 4s ease-in-out indefinite alternate; }
      @keyframes asciiFloat { 0% { transform: translateY(0px); } 100% { transform: translateY(-6px); } }

      .blink-cursor { animation: blink 0.9s infinite; }
      @keyframes blink { 0%, 100% { opacity: 1; } 50% { opacity: 0; } }

      .shimmer-border { animation: shimmer 4s linear indefinite; stroke-dasharray: 200 600; }
      @keyframes shimmer { 0% { stroke-dashoffset: 800; } 100% { stroke-dashoffset: 0; } }

      .glass-glare { animation: glareSweep 8s ease-in-out indefinite; }
      @keyframes glareSweep { 0% { transform: translateX(-600px) rotate(25deg); opacity: 0; } 20% { opacity: 0.15; } 40% { transform: translateX(1200px) rotate(25deg); opacity: 0; } 100% { transform: translateX(1200px) rotate(25deg); opacity: 0; } }

      .phrase-1 { animation: cycleP1 12s infinite; }
      .phrase-2 { animation: cycleP2 12s infinite; }
      .phrase-3 { animation: cycleP3 12s infinite; }
      .phrase-4 { animation: cycleP4 12s infinite; }

      @keyframes cycleP1 { 0%, 22% { opacity: 1; transform: translateY(0); } 25%, 97% { opacity: 0; transform: translateY(-6px); } 100% { opacity: 1; transform: translateY(0); } }
      @keyframes cycleP2 { 0%, 24% { opacity: 0; transform: translateY(6px); } 27%, 47% { opacity: 1; transform: translateY(0); } 50%, 100% { opacity: 0; transform: translateY(-6px); } }
      @keyframes cycleP3 { 0%, 49% { opacity: 0; transform: translateY(6px); } 52%, 72% { opacity: 1; transform: translateY(0); } 75%, 100% { opacity: 0; transform: translateY(-6px); } }
      @keyframes cycleP4 { 0%, 74% { opacity: 0; transform: translateY(6px); } 77%, 97% { opacity: 1; transform: translateY(0); } 100% { opacity: 0; transform: translateY(-6px); } }

      .pill { transition: all 0.3s ease; cursor: pointer; }
      .pill:hover { transform: translateY(-2px) scale(1.04); fill: #1E293B; stroke: #38BDF8; }
      .icon-btn { transition: all 0.3s ease; cursor: pointer; }
      .icon-btn:hover { transform: translateY(-3px); fill: #1E293B; stroke: #A855F7; }

      .particle { animation: particleFly 10s ease-in-out indefinite alternate; }
      @keyframes particleFly { 0% { opacity: 0.2; transform: translateY(0px) scale(0.8); } 50% { opacity: 0.8; transform: translateY(-20px) scale(1.2); } 100% { opacity: 0.2; transform: translateY(0px) scale(0.8); } }
    </style>

    <clipPath id="panelClipRight">
      <rect width="665" height="550" rx="16" />
    </clipPath>

    <!-- Gradients -->
    <radialGradient id="bgGlowBlue" cx="20%" cy="20%" r="60%">
      <stop offset="0%" stop-color="#3B82F6" stop-opacity="0.22" />
      <stop offset="100%" stop-color="#030712" stop-opacity="0" />
    </radialGradient>

    <radialGradient id="bgGlowPurple" cx="80%" cy="30%" r="60%">
      <stop offset="0%" stop-color="#8B5CF6" stop-opacity="0.2" />
      <stop offset="100%" stop-color="#030712" stop-opacity="0" />
    </radialGradient>

    <radialGradient id="bgGlowEmerald" cx="50%" cy="80%" r="50%">
      <stop offset="0%" stop-color="#10B981" stop-opacity="0.15" />
      <stop offset="100%" stop-color="#030712" stop-opacity="0" />
    </radialGradient>

    <linearGradient id="accentGrad" x1="0%" y1="0%" x2="100%" y2="100%">
      <stop offset="0%" stop-color="#7C3AED">
        <animate attributeName="stop-color" values="#7C3AED;#22D3EE;#10B981;#7C3AED" dur="8s" repeatCount="indefinite" />
      </stop>
      <stop offset="50%" stop-color="#22D3EE">
        <animate attributeName="stop-color" values="#22D3EE;#10B981;#7C3AED;#22D3EE" dur="8s" repeatCount="indefinite" />
      </stop>
      <stop offset="100%" stop-color="#10B981">
        <animate attributeName="stop-color" values="#10B981;#7C3AED;#22D3EE;#10B981" dur="8s" repeatCount="indefinite" />
      </stop>
    </linearGradient>

    <linearGradient id="asciiGrad" x1="0%" y1="0%" x2="100%" y2="100%">
      <stop offset="0%" stop-color="#38BDF8">
        <animate attributeName="stop-color" values="#38BDF8;#A855F7;#34D399;#38BDF8" dur="6s" repeatCount="indefinite" />
      </stop>
      <stop offset="100%" stop-color="#A855F7">
        <animate attributeName="stop-color" values="#A855F7;#34D399;#38BDF8;#A855F7" dur="6s" repeatCount="indefinite" />
      </stop>
    </linearGradient>

    <linearGradient id="glassDark" x1="0%" y1="0%" x2="100%" y2="100%">
      <stop offset="0%" stop-color="#0F172A" stop-opacity="0.88" />
      <stop offset="100%" stop-color="#0B132B" stop-opacity="0.95" />
    </linearGradient>

    <filter id="glowDark" x="-20%" y="-20%" width="140%" height="140%">
      <feGaussianBlur stdDeviation="6" result="blur" />
      <feMerge>
        <feMergeNode in="blur" />
        <feMergeNode in="SourceGraphic" />
      </feMerge>
    </filter>

    <filter id="dropShadow">
      <feDropShadow dx="0" dy="12" stdDeviation="16" flood-color="#000000" flood-opacity="0.6" />
    </filter>
  </defs>

  <!-- Base Dark Canvas -->
  <rect width="1180" height="610" rx="20" fill="#030712" />

  <!-- Animated Ambient Lighting -->
  <g>
    <circle class="bg-float-1" cx="200" cy="150" r="320" fill="url(#bgGlowBlue)" />
    <circle class="bg-float-2" cx="950" cy="200" r="350" fill="url(#bgGlowPurple)" />
    <circle class="bg-float-3" cx="600" cy="500" r="300" fill="url(#bgGlowEmerald)" />
  </g>

  <!-- Background Grid Mesh -->
  <g opacity="0.05" stroke="#FFFFFF" stroke-width="1">
    <path d="M 0,60 L 1180,60 M 0,120 L 1180,120 M 0,180 L 1180,180 M 0,240 L 1180,240 M 0,300 L 1180,300 M 0,360 L 1180,360 M 0,420 L 1180,420 M 0,480 L 1180,480 M 0,540 L 1180,540" />
    <path d="M 100,0 L 100,610 M 200,0 L 200,610 M 300,0 L 300,610 M 400,0 L 400,610 M 500,0 L 500,610 M 600,0 L 600,610 M 700,0 L 700,610 M 800,0 L 800,610 M 900,0 L 900,610 M 1000,0 L 1000,610 M 1100,0 L 1100,610" />
  </g>

  <!-- Animated Particles -->
  <g fill="#38BDF8">
    <circle class="particle" cx="120" cy="90" r="2" opacity="0.4" />
    <circle class="particle" cx="450" cy="520" r="1.5" opacity="0.6" />
    <circle class="particle" cx="1080" cy="140" r="2" opacity="0.5" />
    <circle class="particle" cx="720" cy="80" r="2.5" opacity="0.3" />
    <circle class="particle" cx="90" cy="480" r="1.5" opacity="0.7" />
  </g>

  <!-- Moving Scanline -->
  <rect class="scanline" width="1180" height="2" fill="url(#accentGrad)" opacity="0.2" />

  <!-- Outer Glass Border Shimmer -->
  <rect x="2" y="2" width="1176" height="606" rx="19" fill="none" stroke="rgba(255,255,255,0.06)" stroke-width="1.5" />

  <!-- LEFT SIDE: ASCII CYBER TERMINAL PANEL -->
  <g transform="translate(30, 30)" filter="url(#dropShadow)">
    <rect width="425" height="550" rx="16" fill="url(#glassDark)" stroke="rgba(255,255,255,0.08)" stroke-width="1" />
    <rect class="shimmer-border" width="425" height="550" rx="16" fill="none" stroke="url(#accentGrad)" stroke-width="2" opacity="0.5" />

    <!-- Terminal Header Bar -->
    <g transform="translate(0, 0)">
      <path d="M 0,16 A 16,16 0 0,1 16,0 L 409,0 A 16,16 0 0,1 425,16 L 425,38 L 0,38 Z" fill="#0B132B" opacity="0.9" />
      <circle cx="24" cy="19" r="5" fill="#EF4444" opacity="0.8" />
      <circle cx="40" cy="19" r="5" fill="#F59E0B" opacity="0.8" />
      <circle cx="56" cy="19" r="5" fill="#10B981" opacity="0.8" />
      <text x="212" y="23" font-family="'Fira Code', monospace" font-size="12" fill="#94A3B8" text-anchor="middle" font-weight="500">cyber-avatar.sh — 80x24</text>
      <line x1="0" y1="38" x2="425" y2="38" stroke="rgba(255,255,255,0.08)" stroke-width="1" />
    </g>

    <!-- ASCII Content Box (Floating Animation) -->
    <g class="ascii-float" transform="translate(25, 60)">
      <g font-family="'Fira Code', 'Courier New', monospace" font-size="12" fill="url(#asciiGrad)" font-weight="600" filter="url(#glowDark)">
        <text y="20">╭──────────────────────────────────────╮</text>
        <text y="38">│  __  __                              │</text>
        <text y="56">│ /  \/  \  SHREEVISHNU R S            │</text>
        <text y="74">│ \  /\  /  Software &amp; Embedded Eng.   │</text>
        <text y="92">│  \/  \/                              │</text>
        <text y="110">├──────────────────────────────────────┤</text>
        <text y="128">│           ____                       │</text>
        <text y="146">│         .╱    ╲.   [HARDWARE + AI]   │</text>
        <text y="164">│        ╱  ●  ●  ╲  STATUS: ONLINE    │</text>
        <text y="182">│       │    └┘    │ ARCH: JAVA/C++    │</text>
        <text y="200">│        ╲  ───  ╱   CORE: ESP32/STM32 │</text>
        <text y="218">│         '────'     NET: MQTT/MODBUS  │</text>
        <text y="236">│        ╱│ ▓▓▓ │╲   VISION: YOLO/CLIP │</text>
        <text y="254">│       ╱ │ ▓▓▓ │ ╲                    │</text>
        <text y="272">├──────────────────────────────────────┤</text>
        <text y="290">│ &gt; CONNECTED: 115200 Baud // Modbus   │</text>
        <text y="308">│ &gt; RUNNING: Vision_Pipeline_v2.py     │</text>
        <text y="326">│ &gt; SYSTEM_HEALTH: 100% OPERATIONAL    │</text>
        <text y="344">╰──────────────────────────────────────╯</text>
      </g>
    </g>

    <!-- Terminal Status Footer -->
    <g transform="translate(25, 435)">
      <rect width="375" height="85" rx="10" fill="#030712" opacity="0.6" stroke="rgba(255,255,255,0.06)" stroke-width="1" />
      <g transform="translate(15, 24)" font-family="'Fira Code', monospace" font-size="11" fill="#94A3B8">
        <text x="0" y="0"><tspan fill="#10B981">●</tspan> SYS: ONLINE  |  <tspan fill="#38BDF8">MEM: 64MB</tspan>  |  <tspan fill="#A855F7">FREQ: 240MHz</tspan></text>
        <text x="0" y="20">&gt; telemetry_daemon --target=cloud --ssl</text>
        <text x="0" y="40" fill="#38BDF8">&gt; status: streaming live sensors...<tspan class="blink-cursor" fill="#22D3EE">█</tspan></text>
      </g>
    </g>
  </g>

  <!-- RIGHT SIDE: PROFESSIONAL TERMINAL WINDOW -->
  <g transform="translate(485, 30)" filter="url(#dropShadow)">
    <rect width="665" height="550" rx="16" fill="url(#glassDark)" stroke="rgba(255,255,255,0.08)" stroke-width="1" />
    <rect class="shimmer-border" width="665" height="550" rx="16" fill="none" stroke="url(#accentGrad)" stroke-width="2" opacity="0.3" />

    <!-- Terminal Bar -->
    <g transform="translate(0, 0)">
      <path d="M 0,16 A 16,16 0 0,1 16,0 L 649,0 A 16,16 0 0,1 665,16 L 665,38 L 0,38 Z" fill="#0B132B" opacity="0.9" />
      <circle cx="24" cy="19" r="5" fill="#EF4444" opacity="0.8" />
      <circle cx="40" cy="19" r="5" fill="#F59E0B" opacity="0.8" />
      <circle cx="56" cy="19" r="5" fill="#10B981" opacity="0.8" />
      <text x="332" y="23" font-family="'Fira Code', monospace" font-size="12" fill="#94A3B8" text-anchor="middle" font-weight="500">~/shreevishnu-rs — zsh</text>
      <line x1="0" y1="38" x2="665" y2="38" stroke="rgba(255,255,255,0.08)" stroke-width="1" />
    </g>

    <!-- Glass Reflection Streak -->
    <g clip-path="url(#panelClipRight)">
      <rect class="glass-glare" x="0" y="0" width="120" height="700" fill="url(#accentGrad)" opacity="0.1" />
    </g>

    <g transform="translate(40, 65)">
      <!-- Greeting -->
      <text font-family="'Inter', -apple-system, sans-serif" font-size="34" font-weight="800" fill="#F8FAFC" letter-spacing="-0.5">
        Hi 👋 I'm <tspan fill="url(#accentGrad)">Shreevishnu R S</tspan>
      </text>

      <!-- Animated Rotating Typing Subtitle -->
      <g transform="translate(0, 42)">
        <g font-family="'Fira Code', 'JetBrains Mono', monospace" font-size="16" font-weight="600">
          <text class="phrase-1" fill="#38BDF8">&gt; Software &amp; Embedded Systems Engineer</text>
          <text class="phrase-2" fill="#A855F7">&gt; Java • System Design • DSA Specialist</text>
          <text class="phrase-3" fill="#34D399">&gt; IoT Telemetry • Modbus &amp; MQTT Protocol</text>
          <text class="phrase-4" fill="#F472B6">&gt; Edge AI &amp; Computer Vision (YOLO/CLIP)</text>
        </g>
        <rect class="blink-cursor" x="430" y="-14" width="9" height="18" fill="#22D3EE" />
      </g>

      <!-- Divider line -->
      <line x1="0" y1="62" x2="585" y2="62" stroke="rgba(255,255,255,0.08)" stroke-width="1" />

      <!-- Details List Section -->
      <g transform="translate(0, 85)" font-family="'Inter', sans-serif" font-size="14" fill="#94A3B8" font-weight="400">
        <g transform="translate(0, 0)">
          <text font-weight="600" fill="#F8FAFC">📍 Location:</text>
          <text x="110" fill="#CBD5E1">India</text>
        </g>
        <g transform="translate(0, 26)">
          <text font-weight="600" fill="#F8FAFC">🎓 Education:</text>
          <text x="110" fill="#CBD5E1">Electronics &amp; Communication Engineering</text>
        </g>
        <g transform="translate(0, 52)">
          <text font-weight="600" fill="#F8FAFC">⚡ Focus:</text>
          <text x="110" fill="#CBD5E1">Hardware-Software Co-Design • Java Backend • Vision AI</text>
        </g>
        <g transform="translate(0, 78)">
          <text font-weight="600" fill="#F8FAFC">🌐 GitHub:</text>
          <text x="110" fill="#38BDF8" font-family="'Fira Code', monospace">github.com/Shreevishnu-senthilkumar</text>
        </g>
        <g transform="translate(0, 104)">
          <text font-weight="600" fill="#F8FAFC">✉️ Email:</text>
          <text x="110" fill="#38BDF8" font-family="'Fira Code', monospace">shreevishnu.rs@gmail.com</text>
        </g>
      </g>

      <!-- Skills Section Header -->
      <g transform="translate(0, 240)">
        <text font-family="'Inter', sans-serif" font-size="15" font-weight="700" fill="#F8FAFC" letter-spacing="0.5">
          TECH STACK &amp; CORE COMPETENCIES
        </text>
        <line x1="0" y1="12" x2="585" y2="12" stroke="rgba(255,255,255,0.08)" stroke-width="1" />

        <!-- Glowing Pills Badges Grid -->
        <g transform="translate(0, 28)">
          <!-- Row 1 -->
          <g class="pill" transform="translate(0, 0)">
            <rect width="72" height="28" rx="14" fill="#030712" stroke="rgba(255,255,255,0.12)" stroke-width="1" />
            <circle cx="15" cy="14" r="4" fill="#ED8B00" />
            <text x="42" y="18" font-family="'Inter', sans-serif" font-size="12" fill="#F8FAFC" font-weight="600" text-anchor="middle">Java</text>
          </g>

          <g class="pill" transform="translate(80, 0)">
            <rect width="84" height="28" rx="14" fill="#030712" stroke="rgba(255,255,255,0.12)" stroke-width="1" />
            <circle cx="15" cy="14" r="4" fill="#3776AB" />
            <text x="48" y="18" font-family="'Inter', sans-serif" font-size="12" fill="#F8FAFC" font-weight="600" text-anchor="middle">Python</text>
          </g>

          <g class="pill" transform="translate(172, 0)">
            <rect width="76" height="28" rx="14" fill="#030712" stroke="rgba(255,255,255,0.12)" stroke-width="1" />
            <circle cx="15" cy="14" r="4" fill="#00599C" />
            <text x="44" y="18" font-family="'Inter', sans-serif" font-size="12" fill="#F8FAFC" font-weight="600" text-anchor="middle">C/C++</text>
          </g>

          <g class="pill" transform="translate(256, 0)">
            <rect width="78" height="28" rx="14" fill="#030712" stroke="rgba(255,255,255,0.12)" stroke-width="1" />
            <circle cx="15" cy="14" r="4" fill="#E7352C" />
            <text x="45" y="18" font-family="'Inter', sans-serif" font-size="12" fill="#F8FAFC" font-weight="600" text-anchor="middle">ESP32</text>
          </g>

          <g class="pill" transform="translate(342, 0)">
            <rect width="80" height="28" rx="14" fill="#030712" stroke="rgba(255,255,255,0.12)" stroke-width="1" />
            <circle cx="15" cy="14" r="4" fill="#03234B" />
            <text x="46" y="18" font-family="'Inter', sans-serif" font-size="12" fill="#F8FAFC" font-weight="600" text-anchor="middle">STM32</text>
          </g>

          <g class="pill" transform="translate(430, 0)">
            <rect width="76" height="28" rx="14" fill="#030712" stroke="rgba(255,255,255,0.12)" stroke-width="1" />
            <circle cx="15" cy="14" r="4" fill="#660066" />
            <text x="44" y="18" font-family="'Inter', sans-serif" font-size="12" fill="#F8FAFC" font-weight="600" text-anchor="middle">MQTT</text>
          </g>

          <g class="pill" transform="translate(514, 0)">
            <rect width="72" height="28" rx="14" fill="#030712" stroke="rgba(255,255,255,0.12)" stroke-width="1" />
            <circle cx="15" cy="14" r="4" fill="#C1272D" />
            <text x="42" y="18" font-family="'Inter', sans-serif" font-size="12" fill="#F8FAFC" font-weight="600" text-anchor="middle">Modbus</text>
          </g>

          <!-- Row 2 -->
          <g class="pill" transform="translate(0, 36)">
            <rect width="86" height="28" rx="14" fill="#030712" stroke="rgba(255,255,255,0.12)" stroke-width="1" />
            <circle cx="15" cy="14" r="4" fill="#5C3EE8" />
            <text x="49" y="18" font-family="'Inter', sans-serif" font-size="12" fill="#F8FAFC" font-weight="600" text-anchor="middle">OpenCV</text>
          </g>

          <g class="pill" transform="translate(94, 36)">
            <rect width="108" height="28" rx="14" fill="#030712" stroke="rgba(255,255,255,0.12)" stroke-width="1" />
            <circle cx="15" cy="14" r="4" fill="#6DB33F" />
            <text x="60" y="18" font-family="'Inter', sans-serif" font-size="12" fill="#F8FAFC" font-weight="600" text-anchor="middle">Spring Boot</text>
          </g>

          <g class="pill" transform="translate(210, 36)">
            <rect width="74" height="28" rx="14" fill="#030712" stroke="rgba(255,255,255,0.12)" stroke-width="1" />
            <circle cx="15" cy="14" r="4" fill="#FCC624" />
            <text x="43" y="18" font-family="'Inter', sans-serif" font-size="12" fill="#F8FAFC" font-weight="600" text-anchor="middle">Linux</text>
          </g>

          <g class="pill" transform="translate(292, 36)">
            <rect width="64" height="28" rx="14" fill="#030712" stroke="rgba(255,255,255,0.12)" stroke-width="1" />
            <circle cx="15" cy="14" r="4" fill="#F05032" />
            <text x="38" y="18" font-family="'Inter', sans-serif" font-size="12" fill="#F8FAFC" font-weight="600" text-anchor="middle">Git</text>
          </g>

          <g class="pill" transform="translate(364, 36)">
            <rect width="124" height="28" rx="14" fill="#030712" stroke="rgba(255,255,255,0.12)" stroke-width="1" />
            <circle cx="15" cy="14" r="4" fill="#A855F7" />
            <text x="68" y="18" font-family="'Inter', sans-serif" font-size="12" fill="#F8FAFC" font-weight="600" text-anchor="middle">System Design</text>
          </g>

          <g class="pill" transform="translate(496, 36)">
            <rect width="90" height="28" rx="14" fill="#030712" stroke="rgba(255,255,255,0.12)" stroke-width="1" />
            <circle cx="15" cy="14" r="4" fill="#00FFFF" />
            <text x="51" y="18" font-family="'Inter', sans-serif" font-size="12" fill="#F8FAFC" font-weight="600" text-anchor="middle">YOLO/CLIP</text>
          </g>
        </g>
      </g>

      <!-- Bottom Social Icons Bar -->
      <g transform="translate(0, 395)">
        <text font-family="'Inter', sans-serif" font-size="14" font-weight="600" fill="#94A3B8">CONNECT:</text>

        <!-- GitHub Icon -->
        <a href="https://github.com/Shreevishnu-senthilkumar">
          <g class="icon-btn" transform="translate(90, -14)">
            <rect width="100" height="34" rx="17" fill="#030712" stroke="rgba(255,255,255,0.12)" stroke-width="1" />
            <path d="M 22,23 C 16.5,24.8 16.5,20.8 15,20 M 19,25 L 19,21.5 C 19,20.5 19.3,19.8 19.8,19.3 C 17.5,19 15,18.1 15,14.2 C 15,13 15.4,12.1 16.1,11.3 C 16,11 15.6,9.8 16.2,8.3 C 16.2,8.3 17.1,8 19.2,9.5 C 20.1,9.2 21.1,9.1 22,9.1 C 22.9,9.1 23.9,9.2 24.8,9.5 C 26.9,8 27.8,8.3 27.8,8.3 C 28.4,9.8 28,11 27.9,11.3 C 28.6,12.1 29,13 29,14.2 C 29,18.1 26.5,19 24.2,19.3 C 24.8,19.8 25.2,20.7 25.2,22 L 25.2,25" fill="none" stroke="#F8FAFC" stroke-width="1.5" stroke-linecap="round" stroke-linejoin="round" />
            <text x="60" y="21" font-family="'Inter', sans-serif" font-size="12" fill="#F8FAFC" font-weight="600" text-anchor="middle">GitHub</text>
          </g>
        </a>

        <!-- LinkedIn Icon -->
        <a href="https://linkedin.com/in/YOUR_LINKEDIN">
          <g class="icon-btn" transform="translate(200, -14)">
            <rect width="104" height="34" rx="17" fill="#030712" stroke="rgba(255,255,255,0.12)" stroke-width="1" />
            <path d="M 17,13.5 A 1.5,1.5 0 1,1 14,13.5 A 1.5,1.5 0 1,1 17,13.5 Z M 14,17 L 17,17 L 17,25 L 14,25 Z M 19,17 L 22,17 L 22,18.2 C 22.4,17.4 23.4,16.8 24.8,16.8 C 27.5,16.8 28,18.5 28,21 L 28,25 L 25,25 L 25,21.5 C 25,20.2 24.6,19.2 23.4,19.2 C 22.2,19.2 22,20.1 22,21.3 L 22,25 L 19,25 Z" fill="#0077B5" />
            <text x="63" y="21" font-family="'Inter', sans-serif" font-size="12" fill="#F8FAFC" font-weight="600" text-anchor="middle">LinkedIn</text>
          </g>
        </a>

        <!-- Email Icon -->
        <a href="mailto:shreevishnu.rs@gmail.com">
          <g class="icon-btn" transform="translate(314, -14)">
            <rect width="96" height="34" rx="17" fill="#030712" stroke="rgba(255,255,255,0.12)" stroke-width="1" />
            <path d="M 15,13.5 L 27,13.5 A 1.5,1.5 0 0,1 28.5,15 L 28.5,23 A 1.5,1.5 0 0,1 27,24.5 L 15,24.5 A 1.5,1.5 0 0,1 13.5,23 L 13.5,15 A 1.5,1.5 0 0,1 15,13.5 Z M 14.5,15 L 21,19.5 L 27.5,15" fill="none" stroke="#EA4335" stroke-width="1.5" stroke-linecap="round" stroke-linejoin="round" />
            <text x="58" y="21" font-family="'Inter', sans-serif" font-size="12" fill="#F8FAFC" font-weight="600" text-anchor="middle">Email</text>
          </g>
        </a>
      </g>
    </g>
  </g>
</svg>
